<?xml version="1.0" standalone="no"?>
<!DOCTYPE svg PUBLIC "-//W3C//DTD SVG 20010904//EN"
 "http://www.w3.org/TR/2001/REC-SVG-20010904/DTD/svg10.dtd">
<svg version="1.0" xmlns="http://www.w3.org/2000/svg"
 width="1280.000000pt" height="1218.000000pt" viewBox="0 0 1280.000000 1218.000000"
 preserveAspectRatio="xMidYMid meet">
<metadata>
Created by potrace 1.15, written by Peter Selinger 2001-2017
</metadata>
<g transform="translate(0.000000,1218.000000) scale(0.100000,-0.100000)"
fill="#000000" stroke="none">
<path d="M5875 12100 c-1013 -69 -1882 -277 -2715 -652 -1110 -499 -2031
-1288 -2515 -2154 -128 -228 -125 -255 5 -50 372 588 854 1092 1443 1509 930
660 2091 1093 3347 1247 637 78 1428 79 2095 4 33 -4 57 -4 54 0 -14 15 -367
63 -644 86 -168 15 -901 21 -1070 10z"/>
<path d="M6115 11803 c-1496 -51 -2932 -527 -3990 -1323 -920 -692 -1512
-1581 -1694 -2542 -86 -454 -78 -948 23 -1397 64 -284 149 -519 291 -806 158
-319 339 -593 575 -870 119 -140 381 -402 530 -529 984 -842 2347 -1383 3820
-1515 332 -30 891 -41 1155 -22 66 5 105 4 114 -3 8 -6 476 -495 1040 -1086
1117 -1172 1277 -1337 1284 -1330 3 3 10 223 16 490 7 267 16 652 21 855 5
204 14 593 20 865 7 272 15 557 18 633 l7 138 95 40 c155 65 463 220 635 319
1291 743 2120 1832 2314 3040 32 200 36 259 35 540 0 314 -9 414 -60 670 -288
1452 -1513 2710 -3282 3369 -902 337 -1942 499 -2967 464z"/>
</g>
</svg>
