<?xml version="1.0" standalone="no"?>
<!DOCTYPE svg PUBLIC "-//W3C//DTD SVG 20010904//EN"
 "http://www.w3.org/TR/2001/REC-SVG-20010904/DTD/svg10.dtd">
<svg version="1.0" xmlns="http://www.w3.org/2000/svg"
 width="1280.000000pt" height="1168.000000pt" viewBox="0 0 1280.000000 1168.000000"
 preserveAspectRatio="xMidYMid meet">
<metadata>
Created by potrace 1.15, written by Peter Selinger 2001-2017
</metadata>
<g transform="translate(0.000000,1168.000000) scale(0.100000,-0.100000)"
fill="#000000" stroke="none">
<path d="M11620 11661 c-149 -33 -298 -104 -417 -198 -40 -32 -1773 -1783
-3850 -3892 l-3778 -3833 -356 -742 c-196 -407 -478 -995 -628 -1305 -149
-310 -269 -566 -267 -568 2 -2 595 292 1319 654 l1316 658 2758 2750 c4673
4658 4833 4818 4884 4885 68 89 144 246 171 355 31 125 31 333 0 452 -82 315
-298 579 -585 713 -176 82 -393 110 -567 71z"/>
</g>
</svg>
