<?xml version="1.0" standalone="no"?>
<!DOCTYPE svg PUBLIC "-//W3C//DTD SVG 20010904//EN"
 "http://www.w3.org/TR/2001/REC-SVG-20010904/DTD/svg10.dtd">
<svg version="1.0" xmlns="http://www.w3.org/2000/svg"
 width="1076.000000pt" height="1280.000000pt" viewBox="0 0 1076.000000 1280.000000"
 preserveAspectRatio="xMidYMid meet">
<metadata>
Created by potrace 1.15, written by Peter Selinger 2001-2017
</metadata>
<g transform="translate(0.000000,1280.000000) scale(0.100000,-0.100000)"
fill="#000000" stroke="none">
<path d="M7105 12794 c-465 -36 -895 -155 -1305 -360 -988 -495 -1676 -1438
-1845 -2530 -57 -371 -55 -725 6 -1089 81 -483 253 -920 524 -1330 128 -193
243 -334 418 -513 118 -119 145 -152 128 -152 -12 0 -36 -13 -52 -29 -24 -24
-29 -38 -29 -76 0 -25 5 -55 10 -66 13 -24 14 -24 -56 8 -83 38 -163 39 -200
2 -31 -31 -35 -89 -10 -138 22 -41 20 -48 -13 -54 -24 -5 -92 -88 -412 -509
-211 -277 -389 -516 -397 -531 -8 -15 -11 -38 -8 -51 6 -23 5 -23 -68 -18 -70
4 -76 3 -100 -21 -37 -37 -35 -94 4 -164 l30 -53 -68 49 c-80 58 -116 71 -192
71 -43 0 -71 -7 -118 -31 -59 -29 -68 -40 -279 -317 -121 -158 -772 -1014
-1448 -1902 -676 -888 -1311 -1723 -1412 -1855 -146 -191 -187 -251 -199 -294
-22 -73 -14 -147 24 -214 26 -46 69 -82 373 -315 189 -144 361 -272 383 -283
96 -51 221 -31 305 49 54 51 3217 4205 3258 4278 34 60 41 145 18 214 -18 53
-70 116 -145 172 l-35 27 45 -16 c59 -19 124 -12 156 18 30 28 32 85 5 146
l-19 42 26 6 c15 3 34 11 43 18 13 10 298 381 707 920 63 84 82 116 82 141 l0
32 69 -4 c64 -4 72 -2 95 21 47 47 30 131 -44 218 l-39 47 54 4 c66 6 101 33
112 89 l8 39 85 -51 c408 -246 877 -404 1380 -465 166 -20 536 -23 705 -5
1081 114 2007 689 2578 1600 260 416 425 881 494 1396 24 181 24 636 0 820
-126 952 -594 1762 -1342 2325 -490 369 -1020 583 -1650 666 -105 14 -536 26
-640 18z m635 -149 c435 -55 831 -185 1210 -397 1066 -597 1715 -1746 1677
-2968 -16 -512 -138 -979 -371 -1425 -404 -775 -1101 -1359 -1931 -1619 -328
-103 -641 -149 -1000 -149 -288 1 -515 28 -780 94 -835 208 -1549 728 -2009
1462 -397 635 -569 1452 -460 2192 118 806 507 1517 1119 2044 529 456 1212
734 1925 785 115 8 500 -4 620 -19z"/>
</g>
</svg>
